<?xml version="1.0" encoding="iso-8859-1"?>
<!-- Generator: Adobe Illustrator 19.0.0, SVG Export Plug-In . SVG Version: 6.00 Build 0)  -->
<svg xmlns="http://www.w3.org/2000/svg" xmlns:xlink="http://www.w3.org/1999/xlink" version="1.1" id="Layer_1" x="0px" y="0px" viewBox="0 0 512 512" style="enable-background:new 0 0 512 512;" xml:space="preserve" width="512" height="512">
<g id="XMLID_1761_">
	<g id="XMLID_2063_">
		<path id="XMLID_1111_" style="fill:#FF7480;" d="M370,10H34c-13.255,0-24,10.745-24,24v444c0,13.255,10.745,24,24,24h336    c13.255,0,24-10.745,24-24V34C394,20.745,383.255,10,370,10z"/>
		<path id="XMLID_1110_" style="fill:#FF7480;" d="M255.917,82H148.083c-11.736,0-21.25-9.514-21.25-21.25V10h150.333v50.75    C277.167,72.486,267.653,82,255.917,82z"/>
		<g id="XMLID_1107_">
			<path id="XMLID_1109_" style="fill:#FF7480;" d="M352.5,399H311c-11.046,0-20,8.954-20,20v41.5"/>
			<path id="XMLID_1108_" style="fill:#F8F8F8;" d="M123.667,50H70c-11.046,0-20,8.954-20,20v372c0,11.046,8.954,20,20,20h221l63-63     V70c0-11.046-8.954-20-20-20h-53.667"/>
			<path id="XMLID_1769_" style="fill:#FFD89B;" d="M352.5,399H311c-11.046,0-20,8.954-20,20v41.5"/>
		</g>
		<g id="XMLID_3040_">
			<path id="XMLID_3047_" style="fill:#FFCB78;" d="M446,397.048V58.882c0-15.464,12.536-28,28-28h0c15.464,0,28,12.536,28,28     v338.167l-28,84.07L446,397.048z"/>
			<polygon id="XMLID_3046_" style="fill:#AFABB0;" points="502,397.048 446,397.048 474,481.118    "/>
			<path id="XMLID_3045_" style="fill:#FF7480;" d="M502,78.132v-19.25c0-15.464-12.536-28-28-28l0,0c-15.464,0-28,12.536-28,28     v19.25H502z"/>
		</g>
		<path id="XMLID_1200_" style="fill:#93E7F8;" d="M255.917,82H148.083c-11.736,0-21.25-9.514-21.25-21.25V10h150.333v50.75    C277.167,72.486,267.653,82,255.917,82z"/>
	</g>
	<g id="XMLID_346_">
		<path id="XMLID_427_" d="M474,20.882c-20.953,0-38,17.047-38,38v338.167c0,1.074,0.173,2.141,0.512,3.16l28,84.07    c1.361,4.084,5.183,6.84,9.488,6.84s8.127-2.755,9.488-6.84l28-84.07c0.339-1.019,0.512-2.085,0.512-3.16V293.382    c0-5.523-4.477-10-10-10s-10,4.477-10,10v93.667h-36V88.132h36v125.25c0,5.523,4.477,10,10,10s10-4.477,10-10v-154.5    C512,37.929,494.953,20.882,474,20.882z M474,449.472l-14.129-42.423h28.259L474,449.472z M456,68.132v-9.25    c0-9.925,8.075-18,18-18s18,8.075,18,18v9.25H456z"/>
		<path id="XMLID_803_" d="M502,243.38c-2.63,0-5.21,1.07-7.07,2.93c-1.86,1.86-2.93,4.44-2.93,7.07s1.07,5.21,2.93,7.07    c1.86,1.86,4.44,2.93,7.07,2.93c2.63,0,5.21-1.07,7.07-2.93c1.86-1.86,2.93-4.44,2.93-7.07s-1.07-5.21-2.93-7.07    C507.21,244.45,504.63,243.38,502,243.38z"/>
		<path id="XMLID_909_" d="M370,0h-92.833H126.833H34C15.252,0,0,15.252,0,34v444c0,18.748,15.252,34,34,34h336    c18.748,0,34-15.252,34-34V34C404,15.252,388.748,0,370,0z M267.167,20v40.75c0,6.203-5.047,11.25-11.25,11.25H148.083    c-6.203,0-11.25-5.047-11.25-11.25V20H267.167z M384,478c0,7.72-6.28,14-14,14H34c-7.72,0-14-6.28-14-14V34c0-7.72,6.28-14,14-14    h82.833v20H70c-16.542,0-30,13.458-30,30v372c0,16.542,13.458,30,30,30h48.205c5.523,0,10-4.477,10-10s-4.477-10-10-10H70    c-5.514,0-10-4.486-10-10V70c0-5.514,4.486-10,10-10h46.833v0.75c0,17.231,14.019,31.25,31.25,31.25h107.833    c17.231,0,31.25-14.019,31.25-31.25V60H334c5.514,0,10,4.486,10,10v319h-33c-16.542,0-30,13.458-30,30v33h-82.794    c-5.523,0-10,4.477-10,10s4.477,10,10,10H291c2.652,0,5.196-1.054,7.071-2.929l63-63c1.875-1.875,2.929-4.419,2.929-7.071V70    c0-16.542-13.458-30-30-30h-46.833V20H370c7.72,0,14,6.28,14,14V478z M329.858,409L301,437.858V419c0-5.514,4.486-10,10-10    H329.858z"/>
		<path id="XMLID_912_" d="M138.339,228.905l-30.979,30.979l-9.29-9.29c-3.905-3.905-10.237-3.905-14.143,0    c-3.905,3.905-3.905,10.237,0,14.143l16.361,16.361c1.953,1.953,4.512,2.929,7.071,2.929s5.119-0.976,7.071-2.929l38.05-38.05    c3.905-3.905,3.905-10.237,0-14.143C148.577,225,142.245,225,138.339,228.905z"/>
		<path id="XMLID_913_" d="M191.757,283.899h50.782c5.523,0,10-4.477,10-10s-4.477-10-10-10h-50.782c-5.523,0-10,4.477-10,10    S186.234,283.899,191.757,283.899z"/>
		<path id="XMLID_914_" d="M191.757,243.899H293.32c5.523,0,10-4.477,10-10s-4.477-10-10-10H191.757c-5.523,0-10,4.477-10,10    S186.234,243.899,191.757,243.899z"/>
		<path id="XMLID_915_" d="M152.482,321.905c-3.905-3.905-10.237-3.905-14.143,0l-30.979,30.979l-9.29-9.29    c-3.905-3.905-10.237-3.905-14.143,0c-3.905,3.905-3.905,10.237,0,14.143l16.361,16.361c1.953,1.953,4.512,2.929,7.071,2.929    s5.119-0.976,7.071-2.929l38.05-38.05C156.387,332.142,156.387,325.81,152.482,321.905z"/>
		<path id="XMLID_916_" d="M242.539,376.899c5.523,0,10-4.477,10-10s-4.477-10-10-10h-50.782c-5.523,0-10,4.477-10,10    s4.477,10,10,10H242.539z"/>
		<path id="XMLID_917_" d="M191.757,336.899H293.32c5.523,0,10-4.477,10-10s-4.477-10-10-10H191.757c-5.523,0-10,4.477-10,10    S186.234,336.899,191.757,336.899z"/>
		<path id="XMLID_918_" d="M100.29,186.936c1.875,1.875,4.419,2.929,7.071,2.929c2.652,0,5.196-1.054,7.071-2.929l38.05-38.05    c3.905-3.905,3.905-10.237,0-14.143c-3.905-3.905-10.237-3.905-14.143,0l-30.979,30.979l-9.29-9.29    c-3.905-3.906-10.237-3.904-14.142,0c-3.905,3.905-3.906,10.237,0,14.142L100.29,186.936z"/>
		<path id="XMLID_926_" d="M191.757,189.738h50.782c5.523,0,10-4.477,10-10s-4.477-10-10-10h-50.782c-5.523,0-10,4.477-10,10    S186.234,189.738,191.757,189.738z"/>
		<path id="XMLID_927_" d="M191.757,149.738H293.32c5.523,0,10-4.477,10-10s-4.477-10-10-10H191.757c-5.523,0-10,4.477-10,10    S186.234,149.738,191.757,149.738z"/>
		<path id="XMLID_950_" d="M158.21,452c-2.64,0-5.21,1.07-7.08,2.93c-1.86,1.86-2.93,4.44-2.93,7.07c0,2.63,1.07,5.21,2.93,7.07    s4.44,2.93,7.08,2.93c2.63,0,5.21-1.07,7.07-2.93s2.92-4.44,2.92-7.07c0-2.63-1.06-5.21-2.92-7.07    C163.42,453.07,160.84,452,158.21,452z"/>
	</g>
</g>















</svg>
