<?xml version="1.0"?>
<svg xmlns="http://www.w3.org/2000/svg" xmlns:xlink="http://www.w3.org/1999/xlink" version="1.1" id="Layer_1" x="0px" y="0px" viewBox="0 0 512.021 512.021" style="enable-background:new 0 0 512.021 512.021;" xml:space="preserve" width="512px" height="512px" class=""><g><g>
	<g>
		<path style="fill:#61729B;" d="M450.01,362H287.37l-95.36,140.02V150.91L450.01,362z" data-original="#61729B"/>
	</g>
	<g>
		<path d="M242.01,232c-5.52,0-10,4.48-10,10c0,5.52,4.48,10,10,10c5.52,0,10-4.48,10-10C252.01,236.48,247.53,232,242.01,232z" data-original="#000000" class=""/>
		<path d="M187.728,141.874c-3.492,1.655-5.718,5.173-5.718,9.037V502.02c0,4.389,2.861,8.264,7.055,9.557    c4.202,1.295,8.746-0.308,11.21-3.928L292.659,372H450.01c4.227,0,7.997-2.657,9.418-6.638c1.421-3.98,0.186-8.425-3.085-11.102    l-258-211.09C195.351,140.723,191.218,140.219,187.728,141.874z M202.01,172.013L421.996,352H287.37    c-3.309,0-6.403,1.636-8.265,4.371l-77.095,113.2V172.013z" data-original="#000000" class=""/>
		<path d="M345.7,328.332c3.497-4.274,2.867-10.575-1.408-14.072l-65.75-53.79c-4.274-3.498-10.575-2.867-14.072,1.408    c-3.497,4.274-2.867,10.575,1.408,14.072l65.75,53.79C335.892,333.228,342.194,332.618,345.7,328.332z" data-original="#000000" class=""/>
		<path d="M192.01,0c-77.196,0-140,62.804-140,140c0,61.667,39.982,114.853,96.926,133.246c5.254,1.694,10.891-1.183,12.59-6.442    c1.697-5.256-1.187-10.892-6.442-12.59C105.395,238.165,72.01,192.266,72.01,140c0-66.168,53.832-120,120-120s120,53.832,120,120    c0,19.442-4.504,37.994-13.389,55.14c-2.541,4.904-0.625,10.939,4.278,13.479c4.904,2.542,10.938,0.625,13.479-4.278    c10.226-19.736,15.631-41.984,15.631-64.341C332.01,62.804,269.206,0,192.01,0z" data-original="#000000" class=""/>
	</g>
</g></g> </svg>
